<?xml version="1.0" standalone="no"?>
<!DOCTYPE svg PUBLIC "-//W3C//DTD SVG 20010904//EN"
 "http://www.w3.org/TR/2001/REC-SVG-20010904/DTD/svg10.dtd">

<svg version="1.0" xmlns="http://www.w3.org/2000/svg"
 width="128.000000pt" height="128.000000pt" viewBox="0 0 128.000000 128.000000"
 preserveAspectRatio="xMidYMid meet">

<g class="status-fill" transform="translate(0.000000,128.000000) scale(0.100000,-0.100000)" fill="#a02060" stroke="none">

<path d="M483 1235 c-205 -56 -385 -237 -438 -442 -19 -74 -19 -242 0 -316 54
-207 235 -388 442 -442 74 -19 242 -19 316 0 207 54 388 235 442 442 19 74 19
242 0 316 -54 207 -235 388 -442 442 -72 19 -250 19 -320 0z m377 -301 c36 -8
75 -22 87 -30 l23 -14 -31 -63 c-17 -34 -33 -64 -35 -66 -2 -2 -35 6 -74 19
-98 32 -226 26 -292 -13 -106 -62 -104 -204 3 -259 80 -41 222 -42 317 -2 19
8 36 13 38 12 8 -9 54 -123 54 -134 0 -8 -29 -22 -67 -35 -55 -17 -93 -22
-198 -22 -143 0 -217 17 -296 70 -81 54 -128 169 -114 282 9 74 25 110 71 161
71 78 163 108 334 109 70 1 140 -5 180 -15z"/>

</g>
</svg>

